<?xml version="1.0" encoding="UTF-8" standalone="no"?>
<!-- Created with Inkscape (http://www.inkscape.org/) -->

<svg
   width="180"
   height="180"
   viewBox="0 0 180 180"
   version="1.1"
   id="svg1"
   xml:space="preserve"
   inkscape:export-filename="p.svg"
   inkscape:export-xdpi="96"
   inkscape:export-ydpi="96"
   sodipodi:docname="p.svg"
   inkscape:version="1.3 (0e150ed6c4, 2023-07-21)"
   xmlns:inkscape="http://www.inkscape.org/namespaces/inkscape"
   xmlns:sodipodi="http://sodipodi.sourceforge.net/DTD/sodipodi-0.dtd"
   xmlns:xlink="http://www.w3.org/1999/xlink"
   xmlns="http://www.w3.org/2000/svg"
   xmlns:svg="http://www.w3.org/2000/svg"><sodipodi:namedview
     id="namedview1"
     pagecolor="#505050"
     bordercolor="#eeeeee"
     borderopacity="1"
     inkscape:showpageshadow="0"
     inkscape:pageopacity="0"
     inkscape:pagecheckerboard="0"
     inkscape:deskcolor="#505050"
     inkscape:document-units="px"
     inkscape:zoom="3.0523443"
     inkscape:cx="107.13077"
     inkscape:cy="62.083429"
     inkscape:window-width="1920"
     inkscape:window-height="991"
     inkscape:window-x="-9"
     inkscape:window-y="-9"
     inkscape:window-maximized="1"
     inkscape:current-layer="layer1" /><defs
     id="defs1"><linearGradient
       id="linearGradient3"
       inkscape:collect="always"><stop
         style="stop-color:#eb3a36;stop-opacity:1;"
         offset="0"
         id="stop3" /><stop
         style="stop-color:#e98b00;stop-opacity:1;"
         offset="1"
         id="stop4" /></linearGradient><inkscape:path-effect
       effect="fillet_chamfer"
       id="path-effect12"
       is_visible="true"
       lpeversion="1"
       nodesatellites_param="F,0,0,1,0,33,0,1 @ F,0,0,1,0,33,0,1 @ F,0,0,1,0,33,0,1 @ F,0,0,1,0,33,0,1"
       radius="33"
       unit="px"
       method="auto"
       mode="F"
       chamfer_steps="1"
       flexible="false"
       use_knot_distance="true"
       apply_no_radius="true"
       apply_with_radius="true"
       only_selected="false"
       hide_knots="false" /><linearGradient
       inkscape:collect="always"
       xlink:href="#linearGradient3"
       id="linearGradient4"
       x1="86.472069"
       y1="155.32819"
       x2="89.999992"
       y2="20.682148"
       gradientUnits="userSpaceOnUse" /></defs><g
     inkscape:label="Layer 1"
     inkscape:groupmode="layer"
     id="layer1"><path
       style="display:none;fill:#ffffff;fill-opacity:1;stroke:#ffffff;stroke-width:0;stroke-miterlimit:10"
       id="rect5-1"
       width="180"
       height="180"
       x="238.95108"
       y="-0.96418315"
       inkscape:path-effect="#path-effect12"
       sodipodi:type="rect"
       d="m 271.95108,-0.96418315 h 114 a 33,33 45 0 1 33,33.00000015 V 146.03582 a 33,33 135 0 1 -33,33 h -114 a 33,33 45 0 1 -33,-33 V 32.035817 a 33,33 135 0 1 33,-33.00000015 z"
       transform="translate(-238.95108,0.96418265)" /><path
       sodipodi:type="star"
       style="display:none;fill:#6d98ec;fill-opacity:1;stroke:#ffffff;stroke-width:0;stroke-miterlimit:10"
       id="path7"
       inkscape:flatsided="false"
       sodipodi:sides="3"
       sodipodi:cx="71.583008"
       sodipodi:cy="23.629343"
       sodipodi:r1="35.434174"
       sodipodi:r2="17.717089"
       sodipodi:arg1="2.0943951"
       sodipodi:arg2="3.1415927"
       inkscape:rounded="0"
       inkscape:randomized="0"
       d="m 53.865921,54.316238 -2e-6,-30.686896 2e-6,-30.6868934 L 80.441553,8.2858945 107.01718,23.629343 80.441551,38.972792 Z"
       inkscape:transform-center-x="-8.6470813"
       transform="matrix(0.97612909,0,0,0.97612909,16.594247,65.970526)" /><path
       id="rect1"
       style="fill:url(#linearGradient4);fill-opacity:1;stroke:#ffffff;stroke-width:0;stroke-miterlimit:10"
       d="m 43.647472,20.682148 c -16.317229,0 -29.453392,13.136173 -29.453392,29.453394 v 55.146968 c 0,13.12687 8.50944,24.17982 20.32946,28.00611 -2.298692,8.74738 -6.614307,25.2275 -6.614307,26.02923 l 48.843672,-24.58196 h 59.599605 c 16.31725,0 29.45341,-13.13616 29.45341,-29.45338 V 50.135542 c 0,-16.317221 -13.13614,-29.453394 -29.45341,-29.453394 z m 15.307136,42.565004 h 18.281745 v 28.92375 H 58.954608 Z m 43.251692,0 h 18.28174 v 28.92375 H 102.2063 Z" /></g></svg>
